<svg width="242" height="207" viewBox="0 0 242 207" fill="none" xmlns="http://www.w3.org/2000/svg">
<path d="M49.1133 195.24C46.5853 195.24 44.3293 194.664 42.3453 193.512C40.3933 192.328 38.8413 190.728 37.6893 188.712C36.5693 186.696 36.0093 184.424 36.0093 181.896C36.0093 179.336 36.5533 177.048 37.6413 175.032C38.7293 173.016 40.2173 171.432 42.1053 170.28C43.9933 169.096 46.1693 168.504 48.6333 168.504C52.6333 168.504 55.8813 170.04 58.3773 173.112C58.7293 173.496 58.8573 173.912 58.7613 174.36C58.6653 174.776 58.3933 175.144 57.9453 175.464C57.5933 175.72 57.1933 175.816 56.7453 175.752C56.3293 175.656 55.9613 175.416 55.6413 175.032C53.7853 172.92 51.4493 171.864 48.6333 171.864C46.8413 171.864 45.2573 172.296 43.8813 173.16C42.5373 174.024 41.4813 175.208 40.7133 176.712C39.9773 178.216 39.6093 179.944 39.6093 181.896C39.6093 183.816 40.0093 185.528 40.8093 187.032C41.6093 188.536 42.7293 189.72 44.1693 190.584C45.6093 191.448 47.2573 191.88 49.1133 191.88C51.6733 191.88 53.7373 191.192 55.3053 189.816C55.6893 189.496 56.0893 189.32 56.5053 189.288C56.9213 189.256 57.3053 189.384 57.6573 189.672C58.0413 190.024 58.2493 190.424 58.2813 190.872C58.3453 191.32 58.2013 191.704 57.8493 192.024C55.5133 194.168 52.6013 195.24 49.1133 195.24ZM77.227 195.24C74.667 195.24 72.379 194.664 70.363 193.512C68.347 192.36 66.763 190.776 65.611 188.76C64.459 186.744 63.883 184.456 63.883 181.896C63.883 179.304 64.459 177 65.611 174.984C66.763 172.968 68.347 171.384 70.363 170.232C72.379 169.08 74.667 168.504 77.227 168.504C79.787 168.504 82.059 169.08 84.043 170.232C86.059 171.384 87.643 172.968 88.795 174.984C89.947 177 90.539 179.304 90.571 181.896C90.571 184.456 89.979 186.744 88.795 188.76C87.643 190.776 86.059 192.36 84.043 193.512C82.059 194.664 79.787 195.24 77.227 195.24ZM77.227 191.88C79.083 191.88 80.747 191.448 82.219 190.584C83.691 189.72 84.843 188.536 85.675 187.032C86.507 185.528 86.923 183.816 86.923 181.896C86.923 179.976 86.507 178.264 85.675 176.76C84.843 175.224 83.691 174.024 82.219 173.16C80.747 172.296 79.083 171.864 77.227 171.864C75.371 171.864 73.707 172.296 72.235 173.16C70.763 174.024 69.595 175.224 68.731 176.76C67.899 178.264 67.483 179.976 67.483 181.896C67.483 183.816 67.899 185.528 68.731 187.032C69.595 188.536 70.763 189.72 72.235 190.584C73.707 191.448 75.371 191.88 77.227 191.88ZM102.703 195C100.783 195 99.1994 194.232 97.9514 192.696C96.7034 191.128 96.0794 189.128 96.0794 186.696V159.336C96.0794 158.792 96.2394 158.36 96.5594 158.04C96.9114 157.688 97.3594 157.512 97.9034 157.512C98.4474 157.512 98.8794 157.688 99.1994 158.04C99.5514 158.36 99.7274 158.792 99.7274 159.336V186.696C99.7274 188.072 99.9994 189.192 100.543 190.056C101.119 190.92 101.839 191.352 102.703 191.352H103.903C104.383 191.352 104.767 191.528 105.055 191.88C105.343 192.2 105.487 192.632 105.487 193.176C105.487 193.72 105.279 194.168 104.863 194.52C104.479 194.84 103.967 195 103.327 195H102.703ZM120.365 195.24C117.805 195.24 115.517 194.664 113.501 193.512C111.485 192.36 109.901 190.776 108.749 188.76C107.597 186.744 107.021 184.456 107.021 181.896C107.021 179.304 107.597 177 108.749 174.984C109.901 172.968 111.485 171.384 113.501 170.232C115.517 169.08 117.805 168.504 120.365 168.504C122.925 168.504 125.197 169.08 127.181 170.232C129.197 171.384 130.781 172.968 131.933 174.984C133.085 177 133.677 179.304 133.709 181.896C133.709 184.456 133.117 186.744 131.933 188.76C130.781 190.776 129.197 192.36 127.181 193.512C125.197 194.664 122.925 195.24 120.365 195.24ZM120.365 191.88C122.221 191.88 123.885 191.448 125.357 190.584C126.829 189.72 127.981 188.536 128.813 187.032C129.645 185.528 130.061 183.816 130.061 181.896C130.061 179.976 129.645 178.264 128.813 176.76C127.981 175.224 126.829 174.024 125.357 173.16C123.885 172.296 122.221 171.864 120.365 171.864C118.509 171.864 116.845 172.296 115.373 173.16C113.901 174.024 112.733 175.224 111.869 176.76C111.037 178.264 110.621 179.976 110.621 181.896C110.621 183.816 111.037 185.528 111.869 187.032C112.733 188.536 113.901 189.72 115.373 190.584C116.845 191.448 118.509 191.88 120.365 191.88ZM142.05 195C141.474 195 141.01 194.84 140.658 194.52C140.338 194.168 140.178 193.72 140.178 193.176V170.616C140.178 170.04 140.338 169.592 140.658 169.272C141.01 168.92 141.474 168.744 142.05 168.744C142.594 168.744 143.026 168.92 143.346 169.272C143.698 169.592 143.874 170.04 143.874 170.616V172.248C144.898 171.064 146.162 170.136 147.666 169.464C149.202 168.792 150.85 168.456 152.61 168.456C154.882 168.456 156.914 168.936 158.706 169.896C160.498 170.824 161.906 172.2 162.93 174.024C163.986 175.848 164.514 178.072 164.514 180.696V193.176C164.514 193.688 164.338 194.12 163.986 194.472C163.634 194.824 163.202 195 162.69 195C162.146 195 161.698 194.824 161.346 194.472C160.994 194.12 160.818 193.688 160.818 193.176V180.696C160.818 177.72 159.986 175.528 158.322 174.12C156.69 172.68 154.658 171.96 152.226 171.96C150.658 171.96 149.234 172.264 147.954 172.872C146.706 173.48 145.714 174.312 144.978 175.368C144.242 176.424 143.874 177.624 143.874 178.968V193.176C143.874 193.72 143.698 194.168 143.346 194.52C143.026 194.84 142.594 195 142.05 195ZM176.454 206.424C176.198 206.424 175.91 206.36 175.59 206.232C174.502 205.752 174.198 204.984 174.678 203.928L179.478 193.416L179.43 193.368L168.726 171.192C168.502 170.712 168.47 170.264 168.63 169.848C168.79 169.432 169.11 169.112 169.59 168.888C170.646 168.408 171.414 168.68 171.894 169.704L181.254 189.432L190.182 169.752C190.662 168.728 191.43 168.44 192.486 168.888C193.574 169.336 193.878 170.088 193.398 171.144L177.846 205.32C177.526 206.056 177.062 206.424 176.454 206.424Z" fill="#848484"/>
<path d="M4 32H41V45C41 53.8366 33.8366 61 25 61H20C11.1634 61 4 53.8366 4 45V32Z" fill="#8D86C9"/>
<rect x="15" y="17" width="3" height="15" fill="#7B7B7B"/>
<rect x="26" y="17" width="3" height="15" fill="#7B7B7B"/>
<path d="M23 61C23.0001 138 164.497 137 210 88" stroke="#848484" stroke-width="5"/>
<circle cx="91" cy="21" r="19.5" stroke="#8D86C9" stroke-width="3"/>
<circle cx="142" cy="21" r="19.5" stroke="#8D86C9" stroke-width="3"/>
<circle cx="116" cy="26" r="19.5" fill="#F0F0F0" stroke="#8D86C9" stroke-width="3"/>
<path d="M93.235 99.5C85.2529 92.5 101.217 54 101.217 54H129.42C129.42 54 148.044 92.5 137.402 99.5C126.759 106.5 101.217 106.5 93.235 99.5Z" stroke="#848484" stroke-width="6"/>
<path d="M151.811 97.4083C142.331 93.8561 140.603 52.7081 140.603 52.7081L164.35 42.5269C164.35 42.5269 195.203 71.1886 189 81.4642C182.797 91.7397 161.29 100.96 151.811 97.4083Z" stroke="#848484" stroke-width="6"/>
<path d="M42.0353 80.2747C38.2713 70.8772 67.508 41.8706 67.508 41.8706L91.0345 52.555C91.0345 52.555 90.651 94.6651 78.8787 97.0068C67.1064 99.3485 45.7994 89.6721 42.0353 80.2747Z" stroke="#848484" stroke-width="6"/>
<path d="M214.884 57L241.817 82.3688L232.904 91.832C226.845 98.2644 216.719 98.5674 210.287 92.5087L206.647 89.0805C200.215 83.0218 199.912 72.8957 205.97 66.4632L214.884 57Z" fill="#8D86C9"/>
</svg>
