<svg width="238" height="209" viewBox="0 0 238 209" fill="none" xmlns="http://www.w3.org/2000/svg">
<path d="M51.6488 197.24C49.1528 197.24 46.9128 196.696 44.9288 195.608C42.9768 194.52 41.4408 193 40.3208 191.048C39.2008 189.064 38.6408 186.84 38.6408 184.376C38.6408 181.912 39.2008 179.704 40.3208 177.752C41.4408 175.8 42.9768 174.28 44.9288 173.192C46.9128 172.104 49.1528 171.56 51.6488 171.56C53.8248 171.56 55.7608 171.992 57.4568 172.856C59.1848 173.688 60.5448 174.92 61.5368 176.552L58.9928 178.28C58.1608 177.032 57.1048 176.104 55.8248 175.496C54.5448 174.856 53.1528 174.536 51.6488 174.536C49.8248 174.536 48.1768 174.952 46.7048 175.784C45.2648 176.584 44.1288 177.736 43.2968 179.24C42.4968 180.744 42.0968 182.456 42.0968 184.376C42.0968 186.328 42.4968 188.056 43.2968 189.56C44.1288 191.032 45.2648 192.184 46.7048 193.016C48.1768 193.816 49.8248 194.216 51.6488 194.216C53.1528 194.216 54.5448 193.912 55.8248 193.304C57.1048 192.696 58.1608 191.768 58.9928 190.52L61.5368 192.248C60.5448 193.88 59.1848 195.128 57.4568 195.992C55.7288 196.824 53.7928 197.24 51.6488 197.24ZM77.4098 197.24C74.9778 197.24 72.7858 196.696 70.8338 195.608C68.8818 194.488 67.3458 192.952 66.2258 191C65.1058 189.048 64.5458 186.84 64.5458 184.376C64.5458 181.912 65.1058 179.704 66.2258 177.752C67.3458 175.8 68.8818 174.28 70.8338 173.192C72.7858 172.104 74.9778 171.56 77.4098 171.56C79.8418 171.56 82.0338 172.104 83.9858 173.192C85.9378 174.28 87.4578 175.8 88.5458 177.752C89.6658 179.704 90.2258 181.912 90.2258 184.376C90.2258 186.84 89.6658 189.048 88.5458 191C87.4578 192.952 85.9378 194.488 83.9858 195.608C82.0338 196.696 79.8418 197.24 77.4098 197.24ZM77.4098 194.216C79.2018 194.216 80.8018 193.816 82.2098 193.016C83.6498 192.184 84.7698 191.016 85.5698 189.512C86.3698 188.008 86.7698 186.296 86.7698 184.376C86.7698 182.456 86.3698 180.744 85.5698 179.24C84.7698 177.736 83.6498 176.584 82.2098 175.784C80.8018 174.952 79.2018 174.536 77.4098 174.536C75.6178 174.536 74.0018 174.952 72.5618 175.784C71.1538 176.584 70.0338 177.736 69.2018 179.24C68.4018 180.744 68.0018 182.456 68.0018 184.376C68.0018 186.296 68.4018 188.008 69.2018 189.512C70.0338 191.016 71.1538 192.184 72.5618 193.016C74.0018 193.816 75.6178 194.216 77.4098 194.216ZM96.4636 161.384H99.8716V197H96.4636V161.384ZM118.954 197.24C116.522 197.24 114.33 196.696 112.378 195.608C110.426 194.488 108.89 192.952 107.77 191C106.65 189.048 106.09 186.84 106.09 184.376C106.09 181.912 106.65 179.704 107.77 177.752C108.89 175.8 110.426 174.28 112.378 173.192C114.33 172.104 116.522 171.56 118.954 171.56C121.386 171.56 123.578 172.104 125.53 173.192C127.482 174.28 129.002 175.8 130.09 177.752C131.21 179.704 131.77 181.912 131.77 184.376C131.77 186.84 131.21 189.048 130.09 191C129.002 192.952 127.482 194.488 125.53 195.608C123.578 196.696 121.386 197.24 118.954 197.24ZM118.954 194.216C120.746 194.216 122.346 193.816 123.754 193.016C125.194 192.184 126.314 191.016 127.114 189.512C127.914 188.008 128.314 186.296 128.314 184.376C128.314 182.456 127.914 180.744 127.114 179.24C126.314 177.736 125.194 176.584 123.754 175.784C122.346 174.952 120.746 174.536 118.954 174.536C117.162 174.536 115.546 174.952 114.106 175.784C112.698 176.584 111.578 177.736 110.746 179.24C109.946 180.744 109.546 182.456 109.546 184.376C109.546 186.296 109.946 188.008 110.746 189.512C111.578 191.016 112.698 192.184 114.106 193.016C115.546 193.816 117.162 194.216 118.954 194.216ZM150.872 171.56C154.04 171.56 156.552 172.488 158.408 174.344C160.296 176.168 161.24 178.84 161.24 182.36V197H157.832V182.696C157.832 180.072 157.176 178.072 155.864 176.696C154.552 175.32 152.68 174.632 150.248 174.632C147.528 174.632 145.368 175.448 143.768 177.08C142.2 178.68 141.416 180.904 141.416 183.752V197H138.008V171.752H141.272V176.408C142.2 174.872 143.48 173.688 145.112 172.856C146.776 171.992 148.696 171.56 150.872 171.56ZM190.52 171.752L177.896 200.024C176.872 202.392 175.688 204.072 174.344 205.064C173 206.056 171.384 206.552 169.496 206.552C168.28 206.552 167.144 206.36 166.088 205.976C165.032 205.592 164.12 205.016 163.352 204.248L164.936 201.704C166.216 202.984 167.752 203.624 169.544 203.624C170.696 203.624 171.672 203.304 172.472 202.664C173.304 202.024 174.072 200.936 174.776 199.4L175.88 196.952L164.6 171.752H168.152L177.656 193.208L187.16 171.752H190.52Z" fill="#848484"/>
<path d="M0 32H37V45C37 53.8366 29.8366 61 21 61H16C7.16344 61 0 53.8366 0 45V32Z" fill="#8D86C9"/>
<rect x="11" y="17" width="3" height="15" fill="#7B7B7B"/>
<rect x="22" y="17" width="3" height="15" fill="#7B7B7B"/>
<path d="M19 61C19.0001 138 160.497 137 206 88" stroke="#848484" stroke-width="5"/>
<circle cx="87" cy="21" r="19.5" stroke="#8D86C9" stroke-width="3"/>
<circle cx="138" cy="21" r="19.5" stroke="#8D86C9" stroke-width="3"/>
<circle cx="112" cy="26" r="19.5" fill="#F8F8F8" stroke="#8D86C9" stroke-width="3"/>
<path d="M89.235 99.5C81.2529 92.5 97.2169 54 97.2169 54H125.42C125.42 54 144.044 92.5 133.402 99.5C122.759 106.5 97.2171 106.5 89.235 99.5Z" stroke="#848484" stroke-width="6"/>
<path d="M147.811 97.4083C138.331 93.8561 136.603 52.7081 136.603 52.7081L160.35 42.5269C160.35 42.5269 191.203 71.1886 185 81.4642C178.797 91.7397 157.29 100.96 147.811 97.4083Z" stroke="#848484" stroke-width="6"/>
<path d="M38.0353 80.2747C34.2712 70.8772 63.5079 41.8706 63.5079 41.8706L87.0344 52.555C87.0344 52.555 86.651 94.6651 74.8787 97.0068C63.1063 99.3485 41.7993 89.6721 38.0353 80.2747Z" stroke="#848484" stroke-width="6"/>
<path d="M210.884 57L237.817 82.3688L228.904 91.832C222.845 98.2644 212.719 98.5674 206.287 92.5087L202.647 89.0805C196.215 83.0218 195.912 72.8957 201.97 66.4632L210.884 57Z" fill="#8D86C9"/>
</svg>
