<svg width="460" height="229" viewBox="0 0 460 229" fill="none" xmlns="http://www.w3.org/2000/svg">
<path d="M37 28H423V209C423 220.046 414.046 229 403 229H57C45.9543 229 37 220.046 37 209V28Z" fill="white"/>
<g filter="url(#filter0_d)">
<path d="M230 112L36.8763 28L423.124 28L230 112Z" fill="white"/>
</g>
<rect x="382" y="188" width="41" height="41" rx="20" fill="#958DD4" fill-opacity="0.41"/>
<rect x="349" y="190" width="29" height="29" rx="14.5" fill="#958DD4" fill-opacity="0.41"/>
<rect x="329" y="170" width="15" height="15" rx="7.5" fill="#958DD4" fill-opacity="0.41"/>
<rect x="346" y="146" width="6" height="6" rx="3" fill="#958DD4" fill-opacity="0.41"/>
<rect x="412" y="181" width="9" height="9" rx="4.5" fill="#958DD4" fill-opacity="0.41"/>
<rect x="366" y="165" width="18" height="18" rx="9" fill="#958DD4" fill-opacity="0.41"/>
<path d="M237.472 145.765C237.472 144.57 237.877 143.546 238.688 142.693C239.541 141.839 240.608 141.413 241.888 141.413C243.125 141.413 244.149 141.839 244.96 142.693C245.813 143.546 246.24 144.57 246.24 145.765C246.24 146.959 245.835 147.962 245.024 148.773C244.213 149.583 243.168 149.989 241.888 149.989C240.608 149.989 239.541 149.562 238.688 148.709C237.877 147.898 237.472 146.917 237.472 145.765ZM211.616 145.765C211.616 144.57 212.021 143.546 212.832 142.693C213.685 141.839 214.752 141.413 216.032 141.413C217.269 141.413 218.293 141.839 219.104 142.693C219.957 143.546 220.384 144.57 220.384 145.765C220.384 146.959 219.979 147.962 219.168 148.773C218.357 149.583 217.312 149.989 216.032 149.989C214.752 149.989 213.685 149.562 212.832 148.709C212.021 147.898 211.616 146.917 211.616 145.765ZM199.584 166.665C203.509 164.233 208.011 162.355 213.088 161.033C218.208 159.71 223.691 159.049 229.536 159.049C235.381 159.049 240.864 159.71 245.984 161.033C251.147 162.355 255.648 164.233 259.488 166.665V172.489C255.008 169.929 250.315 168.051 245.408 166.857C240.501 165.662 235.211 165.065 229.536 165.065C223.861 165.065 218.571 165.662 213.664 166.857C208.757 168.051 204.064 169.929 199.584 172.489V166.665Z" fill="#958DD4" fill-opacity="0.43"/>
<defs>
<filter id="filter0_d" x="0.876465" y="5" width="458.247" height="156" filterUnits="userSpaceOnUse" color-interpolation-filters="sRGB">
<feFlood flood-opacity="0" result="BackgroundImageFix"/>
<feColorMatrix in="SourceAlpha" type="matrix" values="0 0 0 0 0 0 0 0 0 0 0 0 0 0 0 0 0 0 127 0"/>
<feOffset dy="13"/>
<feGaussianBlur stdDeviation="18"/>
<feColorMatrix type="matrix" values="0 0 0 0 0.584314 0 0 0 0 0.552941 0 0 0 0 0.831373 0 0 0 0.57 0"/>
<feBlend mode="normal" in2="BackgroundImageFix" result="effect1_dropShadow"/>
<feBlend mode="normal" in="SourceGraphic" in2="effect1_dropShadow" result="shape"/>
</filter>
</defs>
</svg>
