<svg width="238" height="126" viewBox="0 0 238 126" fill="none" xmlns="http://www.w3.org/2000/svg">
<path d="M0 32H37V45C37 53.8366 29.8366 61 21 61H16C7.16344 61 0 53.8366 0 45V32Z" fill="#8D86C9"/>
<rect x="11" y="17" width="3" height="15" fill="#7B7B7B"/>
<rect x="22" y="17" width="3" height="15" fill="#7B7B7B"/>
<path d="M19 61C19.0001 138 160.497 137 206 88" stroke="#848484" stroke-width="5"/>
<circle cx="87" cy="21" r="19.5" stroke="#8D86C9" stroke-width="3"/>
<circle cx="138" cy="21" r="19.5" stroke="#8D86C9" stroke-width="3"/>
<circle cx="112" cy="26" r="19.5" fill="#F0F0F0" stroke="#8D86C9" stroke-width="3"/>
<path d="M89.235 99.5C81.2529 92.5 97.2169 54 97.2169 54H125.42C125.42 54 144.044 92.5 133.402 99.5C122.759 106.5 97.2171 106.5 89.235 99.5Z" stroke="#848484" stroke-width="6"/>
<path d="M147.811 97.4083C138.331 93.8561 136.603 52.7081 136.603 52.7081L160.35 42.5269C160.35 42.5269 191.203 71.1886 185 81.4642C178.797 91.7397 157.29 100.96 147.811 97.4083Z" stroke="#848484" stroke-width="6"/>
<path d="M38.0353 80.2747C34.2712 70.8772 63.5079 41.8706 63.5079 41.8706L87.0344 52.555C87.0344 52.555 86.651 94.6651 74.8787 97.0068C63.1063 99.3485 41.7993 89.6721 38.0353 80.2747Z" stroke="#848484" stroke-width="6"/>
<path d="M210.884 57L237.817 82.3688L228.904 91.832C222.845 98.2644 212.719 98.5674 206.287 92.5087L202.647 89.0805C196.215 83.0218 195.912 72.8957 201.97 66.4632L210.884 57Z" fill="#8D86C9"/>
</svg>
