<svg width="18" height="18" viewBox="0 0 18 18" fill="none" xmlns="http://www.w3.org/2000/svg">
<path d="M8.865 14.8459L13.1644 17.5664C13.9518 18.0649 14.9152 17.3279 14.708 16.3958L13.5684 11.2801L17.3706 7.83347C18.0647 7.20484 17.6917 6.01261 16.78 5.93674L11.7762 5.49237L9.81812 0.658434C9.46588 -0.219478 8.26412 -0.219478 7.91188 0.658434L5.95384 5.48153L0.949967 5.9259C0.0382879 6.00177 -0.334672 7.194 0.359448 7.82263L4.16156 11.2692L3.02197 16.385C2.81477 17.3171 3.77824 18.0541 4.5656 17.5555L8.865 14.8459Z" fill="#F0D162"/>
<path d="M8.86553 14.2546L9.13235 14.4234L13.4317 17.1438L13.4319 17.1439C13.6319 17.2706 13.8426 17.2443 14.0064 17.1197C14.1735 16.9926 14.2788 16.7691 14.2199 16.5043L13.0804 11.3888L13.0172 11.1049L13.2326 10.9096L17.0347 7.46302L17.0349 7.46286C17.4349 7.10062 17.1743 6.47128 16.7386 6.43502L16.7358 6.43479L11.7319 5.99041L11.4275 5.96337L11.3127 5.68008L9.35469 0.846149L9.35407 0.84462C9.16972 0.385127 8.56028 0.385127 8.37592 0.844619L8.37516 0.846513L6.41712 5.66961L6.30225 5.95256L5.99807 5.97957L0.994196 6.42394L0.991434 6.42419L0.991433 6.42418C0.555658 6.46045 0.29511 7.08979 0.695085 7.45202L0.695258 7.45218L4.49737 10.8988L4.71283 11.0941L4.6496 11.378L3.51005 16.4935L8.86553 14.2546ZM8.86553 14.2546L8.59841 14.4229M8.86553 14.2546L8.59841 14.4229M8.59841 14.4229L4.29901 17.1325L4.29811 17.1331M8.59841 14.4229L4.29811 17.1331M4.29811 17.1331C4.09808 17.2598 3.88741 17.2335 3.72358 17.1088M4.29811 17.1331L3.72358 17.1088M3.72358 17.1088C3.55659 16.9818 3.45125 16.7584 3.51 16.4937L3.72358 17.1088Z" stroke="black" stroke-opacity="0.18"/>
</svg>
